<?xml version="1.0" encoding="iso-8859-1"?>
<!-- Generator: Adobe Illustrator 18.1.1, SVG Export Plug-In . SVG Version: 6.00 Build 0)  -->
<svg version="1.1" id="Capa_1" xmlns="http://www.w3.org/2000/svg" xmlns:xlink="http://www.w3.org/1999/xlink" x="0px" y="0px"
	 viewBox="0 0 16.86 16.86" style="enable-background:new 0 0 16.86 16.86;" xml:space="preserve">
<g>
	<path style="fill:#030104;" d="M14.391,2.469c-3.292-3.292-8.629-3.292-11.922,0c-3.292,3.292-3.292,8.629,0,11.922
		c3.292,3.291,8.63,3.291,11.922,0C17.683,11.098,17.683,5.761,14.391,2.469z M12.664,10.799l-1.805,1.804
		c-0.173,0.174-0.452,0.173-0.624,0.001l-1.762-1.762l-1.805,1.805c-0.172,0.172-0.452,0.172-0.625-0.001l-1.804-1.804
		c-0.172-0.172-0.172-0.452,0-0.624l1.804-1.805L4.256,6.625C4.083,6.452,4.083,6.173,4.256,6l1.805-1.804
		c0.171-0.172,0.452-0.173,0.625,0l1.788,1.788l1.746-1.745c0.172-0.172,0.452-0.172,0.624,0l1.804,1.804
		c0.173,0.172,0.173,0.452,0.001,0.625l-1.745,1.746l1.761,1.761C12.836,10.346,12.836,10.626,12.664,10.799z"/>
</g>
<g>
</g>
<g>
</g>
<g>
</g>
<g>
</g>
<g>
</g>
<g>
</g>
<g>
</g>
<g>
</g>
<g>
</g>
<g>
</g>
<g>
</g>
<g>
</g>
<g>
</g>
<g>
</g>
<g>
</g>
</svg>
