<svg xmlns="http://www.w3.org/2000/svg" width="452.812" height="433.951" viewBox="0 0 452.812 433.951">
  <path id="github-image" d="M226.406.5C101.317.5,0,100.119,0,222.981,0,321.3,64.865,404.672,154.8,434.067c11.32,2.094,15.471-4.792,15.471-10.7,0-5.283-.189-19.282-.283-37.829-62.979,13.415-76.261-29.848-76.261-29.848-10.3-25.678-25.188-32.546-25.188-32.546-20.509-13.792,1.585-13.509,1.585-13.509,22.735,1.547,34.678,22.924,34.678,22.924,20.188,34.017,53,24.188,65.941,18.509,2.038-14.4,7.868-24.188,14.339-29.753-50.281-5.566-103.128-24.7-103.128-109.939,0-24.282,8.773-44.13,23.3-59.7-2.547-5.622-10.188-28.244,1.981-58.884,0,0,18.961-5.962,62.262,22.81a217.077,217.077,0,0,1,113.2,0c43.017-28.772,61.979-22.81,61.979-22.81,12.169,30.64,4.528,53.262,2.264,58.884,14.433,15.565,23.207,35.414,23.207,59.7,0,85.468-52.922,104.279-103.3,109.75,7.924,6.679,15.282,20.32,15.282,41.168,0,29.772-.283,53.7-.283,60.922,0,5.83,3.962,12.792,15.565,10.566,90.581-29.206,155.39-112.637,155.39-210.8C452.811,100.119,351.438.5,226.406.5Z" transform="translate(0 -0.5)" fill="#c18fff"/>
</svg>
