<svg xmlns="http://www.w3.org/2000/svg" width="512" height="512.002" viewBox="0 0 512 512.002">
  <g id="start-button" transform="translate(0 0)">
    <path id="Path_1" data-name="Path 1" d="M511.4,38.222A39.8,39.8,0,0,0,473.778.6C432.74-1.641,352.436.54,275.648,40.257,236.5,60.5,195.1,94.834,162.064,134.442c-.407.488-.8.979-1.207,1.468L85.877,141.7a39.582,39.582,0,0,0-30.161,17.747L4.562,236.821a27.417,27.417,0,0,0,18.674,42.215l63.171,9.784c-.223,1.228-.447,2.455-.652,3.683a39.776,39.776,0,0,0,11.151,34.6L184.9,415.095a39.875,39.875,0,0,0,28.142,11.686,39.209,39.209,0,0,0,6.458-.536c1.228-.2,2.455-.429,3.683-.652l9.784,63.172a27.394,27.394,0,0,0,42.214,18.675l77.372-51.155A39.575,39.575,0,0,0,370.3,426.124l5.792-74.979c.489-.4.981-.8,1.469-1.207C417.166,316.9,451.5,275.5,471.743,236.353c39.719-76.791,41.9-157.1,39.657-198.131ZM336.006,431.259l-74.011,48.933-9.536-61.565c31.28-9.2,62.223-23.927,91.7-43.66l-3.773,48.845a9.772,9.772,0,0,1-4.382,7.447Zm-129.9-37.377-87.993-87.993a9.723,9.723,0,0,1-2.774-8.44,258.047,258.047,0,0,1,11.713-44.562L259.085,384.915a259.132,259.132,0,0,1-44.534,11.741,9.726,9.726,0,0,1-8.44-2.774ZM88.188,171.613l48.844-3.773c-19.734,29.479-34.464,60.422-43.661,91.7l-61.564-9.535,48.934-74.012A9.772,9.772,0,0,1,88.188,171.613ZM358.343,326.9A343.916,343.916,0,0,1,288.9,372.311L139.684,223.09A349.868,349.868,0,0,1,185.1,153.659C215.676,117,253.7,85.383,289.432,66.9,359.906,30.45,434.157,28.487,472.145,30.555a9.839,9.839,0,0,1,9.3,9.3c2.071,37.988.1,112.238-36.349,182.713C426.618,258.3,395,296.324,358.343,326.9Z" fill="#fff"/>
    <path id="Path_2" data-name="Path 2" d="M350.721,236.243a74.939,74.939,0,1,0-53.031-21.931,74.782,74.782,0,0,0,53.031,21.931ZM318.9,129.462a45,45,0,1,1-13.181,31.819A44.854,44.854,0,0,1,318.9,129.462Z" fill="#fff"/>
    <path id="Path_3" data-name="Path 3" d="M15.3,421.938a14.946,14.946,0,0,0,10.606-4.394L74.88,368.571a15,15,0,0,0-21.213-21.213L4.695,396.331A15,15,0,0,0,15.3,421.938Z" fill="#fff"/>
    <path id="Path_4" data-name="Path 4" d="M119.761,392.239a15,15,0,0,0-21.213,0L4.394,486.394a15,15,0,1,0,21.212,21.212l94.154-94.154a15,15,0,0,0,0-21.213Z" fill="#fff"/>
    <path id="Path_5" data-name="Path 5" d="M143.429,437.12,94.456,486.093a15,15,0,1,0,21.212,21.213l48.973-48.973a15,15,0,0,0-21.212-21.213Z" fill="#fff"/>
  </g>
</svg>
